{
	"patcher" : 	{
		"fileversion" : 1,
		"rect" : [ 215.0, 52.0, 445.0, 570.0 ],
		"bglocked" : 0,
		"defrect" : [ 215.0, 52.0, 445.0, 570.0 ],
		"openrect" : [ 0.0, 0.0, 0.0, 0.0 ],
		"openinpresentation" : 0,
		"default_fontsize" : 12.0,
		"default_fontface" : 0,
		"default_fontname" : "Arial",
		"gridonopen" : 0,
		"gridsize" : [ 15.0, 15.0 ],
		"gridsnaponopen" : 0,
		"toolbarvisible" : 1,
		"boxanimatetime" : 200,
		"imprint" : 0,
		"boxes" : [ 			{
				"box" : 				{
					"maxclass" : "newobj",
					"text" : "loadbang",
					"id" : "obj-1",
					"fontsize" : 9.0,
					"hidden" : 1,
					"numinlets" : 1,
					"patching_rect" : [ 103.0, 58.0, 46.0, 17.0 ],
					"numoutlets" : 1,
					"fontname" : "Arial",
					"outlettype" : [ "bang" ]
				}

			}
, 			{
				"box" : 				{
					"maxclass" : "number",
					"minimum" : 1,
					"id" : "obj-2",
					"htextcolor" : [ 0.870588, 0.870588, 0.870588, 1.0 ],
					"bgcolor" : [ 0.866667, 0.866667, 0.866667, 1.0 ],
					"maximum" : 1,
					"fontsize" : 9.0,
					"triscale" : 0.9,
					"hidden" : 1,
					"numinlets" : 1,
					"patching_rect" : [ 103.0, 88.0, 35.0, 17.0 ],
					"numoutlets" : 2,
					"fontname" : "Arial",
					"outlettype" : [ "int", "bang" ]
				}

			}
, 			{
				"box" : 				{
					"maxclass" : "preset",
					"spacing" : 2,
					"id" : "obj-3",
					"margin" : 4,
					"hidden" : 1,
					"numinlets" : 1,
					"patching_rect" : [ 103.0, 110.0, 47.0, 27.0 ],
					"bubblesize" : 8,
					"numoutlets" : 4,
					"outlettype" : [ "preset", "int", "preset", "int" ],
					"preset_data" : [ 						{
							"number" : 1,
							"data" : [ 5, "obj-6", "flonum", "float", 440.0, 6, "obj-5", "gain~", "list", 89, 10.0 ]
						}
 ]
				}

			}
, 			{
				"box" : 				{
					"maxclass" : "ezdac~",
					"id" : "obj-4",
					"numinlets" : 2,
					"patching_rect" : [ 155.0, 370.0, 33.0, 33.0 ],
					"numoutlets" : 0
				}

			}
, 			{
				"box" : 				{
					"maxclass" : "gain~",
					"id" : "obj-5",
					"numinlets" : 2,
					"patching_rect" : [ 166.0, 233.0, 22.0, 122.0 ],
					"numoutlets" : 2,
					"orientation" : 2,
					"outlettype" : [ "signal", "int" ]
				}

			}
, 			{
				"box" : 				{
					"maxclass" : "flonum",
					"id" : "obj-6",
					"htextcolor" : [ 0.870588, 0.870588, 0.870588, 1.0 ],
					"bgcolor" : [ 0.866667, 0.866667, 0.866667, 1.0 ],
					"fontsize" : 9.0,
					"triscale" : 0.9,
					"numinlets" : 1,
					"patching_rect" : [ 166.0, 169.0, 35.0, 17.0 ],
					"numoutlets" : 2,
					"fontname" : "Arial",
					"outlettype" : [ "float", "bang" ]
				}

			}
, 			{
				"box" : 				{
					"maxclass" : "newobj",
					"text" : "cycle~",
					"id" : "obj-7",
					"fontsize" : 9.0,
					"numinlets" : 2,
					"patching_rect" : [ 166.0, 196.0, 34.0, 17.0 ],
					"numoutlets" : 1,
					"fontname" : "Arial",
					"outlettype" : [ "signal" ]
				}

			}
, 			{
				"box" : 				{
					"maxclass" : "comment",
					"text" : "Sine Frequency",
					"id" : "obj-8",
					"fontsize" : 9.0,
					"numinlets" : 1,
					"patching_rect" : [ 128.0, 148.0, 73.0, 17.0 ],
					"numoutlets" : 0,
					"fontname" : "Arial"
				}

			}
, 			{
				"box" : 				{
					"maxclass" : "comment",
					"text" : "sine tone",
					"id" : "obj-9",
					"fontsize" : 14.0,
					"numinlets" : 1,
					"patching_rect" : [ 176.0, 54.0, 100.0, 23.0 ],
					"numoutlets" : 0,
					"fontname" : "Arial"
				}

			}
 ],
		"lines" : [ 			{
				"patchline" : 				{
					"source" : [ "obj-1", 0 ],
					"destination" : [ "obj-2", 0 ],
					"hidden" : 1,
					"midpoints" : [  ]
				}

			}
, 			{
				"patchline" : 				{
					"source" : [ "obj-2", 0 ],
					"destination" : [ "obj-3", 0 ],
					"hidden" : 1,
					"midpoints" : [  ]
				}

			}
, 			{
				"patchline" : 				{
					"source" : [ "obj-5", 0 ],
					"destination" : [ "obj-4", 0 ],
					"hidden" : 0,
					"midpoints" : [  ]
				}

			}
, 			{
				"patchline" : 				{
					"source" : [ "obj-3", 0 ],
					"destination" : [ "obj-5", 0 ],
					"hidden" : 1,
					"midpoints" : [  ]
				}

			}
, 			{
				"patchline" : 				{
					"source" : [ "obj-7", 0 ],
					"destination" : [ "obj-5", 0 ],
					"hidden" : 0,
					"midpoints" : [  ]
				}

			}
, 			{
				"patchline" : 				{
					"source" : [ "obj-3", 0 ],
					"destination" : [ "obj-6", 0 ],
					"hidden" : 1,
					"midpoints" : [  ]
				}

			}
, 			{
				"patchline" : 				{
					"source" : [ "obj-6", 0 ],
					"destination" : [ "obj-7", 0 ],
					"hidden" : 0,
					"midpoints" : [  ]
				}

			}
, 			{
				"patchline" : 				{
					"source" : [ "obj-5", 1 ],
					"destination" : [ "obj-4", 1 ],
					"hidden" : 0,
					"midpoints" : [  ]
				}

			}
 ]
	}

}
